<?xml version="1.0" encoding="UTF-8" standalone="no"?>
<!DOCTYPE svg PUBLIC "-//W3C//DTD SVG 1.1//EN" "http://www.w3.org/Graphics/SVG/1.1/DTD/svg11.dtd">
<svg width="100%" height="100%" viewBox="0 0 1320 350" version="1.1" xmlns="http://www.w3.org/2000/svg" xmlns:xlink="http://www.w3.org/1999/xlink" xml:space="preserve" xmlns:serif="http://www.serif.com/" style="fill-rule:evenodd;clip-rule:evenodd;stroke-linejoin:round;stroke-miterlimit:2;">
    <g transform="matrix(1,0,0,0.285714,-5.68434e-14,49.4286)">
        <rect x="0" y="23" width="1320" height="7" style="fill:rgb(110,110,110);fill-opacity:0.15;"/>
    </g>
    <g transform="matrix(1,0,0,0.285714,-5.68434e-14,94.4286)">
        <rect x="0" y="23" width="1320" height="7" style="fill:rgb(110,110,110);fill-opacity:0.15;"/>
    </g>
    <g transform="matrix(1,0,0,0.285714,-1.7053e-13,139.429)">
        <rect x="0" y="23" width="1320" height="7" style="fill:rgb(110,110,110);fill-opacity:0.15;"/>
    </g>
    <g transform="matrix(1,0,0,0.285714,0,184.429)">
        <rect x="0" y="23" width="1320" height="7" style="fill:rgb(110,110,110);fill-opacity:0.15;"/>
    </g>
    <g transform="matrix(1,0,0,0.285714,-2.55795e-13,229.429)">
        <rect x="0" y="23" width="1320" height="7" style="fill:rgb(110,110,110);fill-opacity:0.15;"/>
    </g>
    <g transform="matrix(1,0,0,0.285714,0,274.429)">
        <rect x="0" y="23" width="1320" height="7" style="fill:rgb(110,110,110);fill-opacity:0.15;"/>
    </g>
    <g transform="matrix(1,0,0,0.285714,-2.55795e-13,319.429)">
        <rect x="0" y="23" width="1320" height="7" style="fill:rgb(110,110,110);fill-opacity:0.15;"/>
    </g>
    <g transform="matrix(6.1149e-17,1,-0.285714,1.74557e-17,318.737,-660)">
        <rect x="0" y="23" width="1320" height="7" style="fill:rgb(110,110,110);fill-opacity:0.15;"/>
    </g>
    <g transform="matrix(6.1149e-17,1,-0.285714,1.74557e-17,273.737,-660)">
        <rect x="0" y="23" width="1320" height="7" style="fill:rgb(110,110,110);fill-opacity:0.15;"/>
    </g>
    <g transform="matrix(6.1149e-17,1,-0.285714,1.74557e-17,228.737,-660)">
        <rect x="0" y="23" width="1320" height="7" style="fill:rgb(110,110,110);fill-opacity:0.15;"/>
    </g>
    <g transform="matrix(6.1149e-17,1,-0.285714,1.74557e-17,183.737,-660)">
        <rect x="0" y="23" width="1320" height="7" style="fill:rgb(110,110,110);fill-opacity:0.15;"/>
    </g>
    <g transform="matrix(6.1149e-17,1,-0.285714,1.74557e-17,138.737,-660)">
        <rect x="0" y="23" width="1320" height="7" style="fill:rgb(110,110,110);fill-opacity:0.15;"/>
    </g>
    <g transform="matrix(6.1149e-17,1,-0.285714,1.74557e-17,93.7371,-660)">
        <rect x="0" y="23" width="1320" height="7" style="fill:rgb(110,110,110);fill-opacity:0.15;"/>
    </g>
    <g transform="matrix(6.1149e-17,1,-0.285714,1.74557e-17,48.7371,-660)">
        <rect x="0" y="23" width="1320" height="7" style="fill:rgb(110,110,110);fill-opacity:0.15;"/>
    </g>
    <g transform="matrix(6.1149e-17,1,-0.285714,1.74557e-17,5.73708,-665)">
        <rect x="0" y="23" width="1320" height="7" style="fill:rgb(110,110,110);fill-opacity:0.15;"/>
    </g>
    <g transform="matrix(6.1149e-17,1,-0.285714,1.74557e-17,633.737,-660)">
        <rect x="0" y="23" width="1320" height="7" style="fill:rgb(110,110,110);fill-opacity:0.15;"/>
    </g>
    <g transform="matrix(6.1149e-17,1,-0.285714,1.74557e-17,588.737,-660)">
        <rect x="0" y="23" width="1320" height="7" style="fill:rgb(110,110,110);fill-opacity:0.15;"/>
    </g>
    <g transform="matrix(6.1149e-17,1,-0.285714,1.74557e-17,543.737,-660)">
        <rect x="0" y="23" width="1320" height="7" style="fill:rgb(110,110,110);fill-opacity:0.15;"/>
    </g>
    <g transform="matrix(6.1149e-17,1,-0.285714,1.74557e-17,498.737,-660)">
        <rect x="0" y="23" width="1320" height="7" style="fill:rgb(110,110,110);fill-opacity:0.15;"/>
    </g>
    <g transform="matrix(6.1149e-17,1,-0.285714,1.74557e-17,453.737,-660)">
        <rect x="0" y="23" width="1320" height="7" style="fill:rgb(110,110,110);fill-opacity:0.15;"/>
    </g>
    <g transform="matrix(6.1149e-17,1,-0.285714,1.74557e-17,408.737,-660)">
        <rect x="0" y="23" width="1320" height="7" style="fill:rgb(110,110,110);fill-opacity:0.15;"/>
    </g>
    <g transform="matrix(6.1149e-17,1,-0.285714,1.74557e-17,363.737,-660)">
        <rect x="0" y="23" width="1320" height="7" style="fill:rgb(110,110,110);fill-opacity:0.15;"/>
    </g>
    <g transform="matrix(6.1149e-17,1,-0.285714,1.74557e-17,948.737,-660)">
        <rect x="0" y="23" width="1320" height="7" style="fill:rgb(110,110,110);fill-opacity:0.15;"/>
    </g>
    <g transform="matrix(6.1149e-17,1,-0.285714,1.74557e-17,903.737,-660)">
        <rect x="0" y="23" width="1320" height="7" style="fill:rgb(110,110,110);fill-opacity:0.15;"/>
    </g>
    <g transform="matrix(6.1149e-17,1,-0.285714,1.74557e-17,858.737,-660)">
        <rect x="0" y="23" width="1320" height="7" style="fill:rgb(110,110,110);fill-opacity:0.15;"/>
    </g>
    <g transform="matrix(6.1149e-17,1,-0.285714,1.74557e-17,813.737,-660)">
        <rect x="0" y="23" width="1320" height="7" style="fill:rgb(110,110,110);fill-opacity:0.15;"/>
    </g>
    <g transform="matrix(6.1149e-17,1,-0.285714,1.74557e-17,768.737,-660)">
        <rect x="0" y="23" width="1320" height="7" style="fill:rgb(110,110,110);fill-opacity:0.15;"/>
    </g>
    <g transform="matrix(6.1149e-17,1,-0.285714,1.74557e-17,723.737,-660)">
        <rect x="0" y="23" width="1320" height="7" style="fill:rgb(110,110,110);fill-opacity:0.15;"/>
    </g>
    <g transform="matrix(6.1149e-17,1,-0.285714,1.74557e-17,678.737,-660)">
        <rect x="0" y="23" width="1320" height="7" style="fill:rgb(110,110,110);fill-opacity:0.15;"/>
    </g>
    <g transform="matrix(6.1149e-17,1,-0.285714,1.74557e-17,1263.74,-660)">
        <rect x="0" y="23" width="1320" height="7" style="fill:rgb(110,110,110);fill-opacity:0.15;"/>
    </g>
    <g transform="matrix(6.1149e-17,1,-0.285714,1.74557e-17,1218.74,-660)">
        <rect x="0" y="23" width="1320" height="7" style="fill:rgb(110,110,110);fill-opacity:0.15;"/>
    </g>
    <g transform="matrix(6.1149e-17,1,-0.285714,1.74557e-17,1173.74,-660)">
        <rect x="0" y="23" width="1320" height="7" style="fill:rgb(110,110,110);fill-opacity:0.15;"/>
    </g>
    <g transform="matrix(6.1149e-17,1,-0.285714,1.74557e-17,1128.74,-660)">
        <rect x="0" y="23" width="1320" height="7" style="fill:rgb(110,110,110);fill-opacity:0.15;"/>
    </g>
    <g transform="matrix(6.1149e-17,1,-0.285714,1.74557e-17,1083.74,-660)">
        <rect x="0" y="23" width="1320" height="7" style="fill:rgb(110,110,110);fill-opacity:0.15;"/>
    </g>
    <g transform="matrix(6.1149e-17,1,-0.285714,1.74557e-17,1038.74,-660)">
        <rect x="0" y="23" width="1320" height="7" style="fill:rgb(110,110,110);fill-opacity:0.15;"/>
    </g>
    <g transform="matrix(6.1149e-17,1,-0.285714,1.74557e-17,993.737,-660)">
        <rect x="0" y="23" width="1320" height="7" style="fill:rgb(110,110,110);fill-opacity:0.15;"/>
    </g>
    <g transform="matrix(6.1149e-17,1,-0.285714,1.74557e-17,1308.74,-660)">
        <rect x="0" y="23" width="1320" height="7" style="fill:rgb(110,110,110);fill-opacity:0.15;"/>
    </g>
</svg>
